# xmcd
#
# Track frame offsets:
# 150
# 15756
# 34512
# 51618
# 69324
# 88229
# 105034
# 120640
# 138945
# 154251
# 168507
#
# Disc length: 2490 seconds
#
# Revision: 0
# Processed by: cddbd v1.5.1PL0 Copyright (c) Steve Scherf et al.
# Submitted via: Axialis_AX_CDPlayer 2.6
#
DISCID=8209b80b
DTITLE=Trace Adkins - Songs About Me
DYEAR=1900
DGENRE=
TTITLE0=Songs About Me 
TTITLE1=Arlington 
TTITLE2=Find Me A Preacher 
TTITLE3=My Way Back 
TTITLE4=I Wish It Was You 
TTITLE5=Bring It On 
TTITLE6=My Heaven 
TTITLE7=Baby I'm Home 
TTITLE8=Metropolis 
TTITLE9=I Learned How To Love From You 
TTITLE10=Honky Tonk Badonkadonk 
EXTD=
EXTT0=
EXTT1=
EXTT2=
EXTT3=
EXTT4=
EXTT5=
EXTT6=
EXTT7=
EXTT8=
EXTT9=
EXTT10=
PLAYORDER=
